<?xml version="1.0" encoding="UTF-8"?>
<!DOCTYPE svg PUBLIC "-//W3C//DTD SVG 1.1//EN" "http://www.w3.org/Graphics/SVG/1.1/DTD/svg11.dtd">
<!-- Creator: CorelDRAW X8 -->
<svg xmlns="http://www.w3.org/2000/svg" xml:space="preserve" width="214mm" height="133mm" version="1.1" style="shape-rendering:geometricPrecision; text-rendering:geometricPrecision; image-rendering:optimizeQuality; fill-rule:evenodd; clip-rule:evenodd"
viewBox="0 0 21400 13300"
 xmlns:xlink="http://www.w3.org/1999/xlink">
 <defs>
  <style type="text/css">
   <![CDATA[
    .fil0 {fill:black}
   ]]>
  </style>
 </defs>
 <g id="Layer_x0020_1">
  <metadata id="CorelCorpID_0Corel-Layer"/>
  <polygon class="fil0" points="25,9643 5844,9644 4906,7889 3031,7886 4858,4741 7715,9630 9690,9643 4858,1269 "/>
  <polygon class="fil0" points="21375,9643 15556,9644 16494,7889 18369,7886 16542,4741 11584,13279 9608,13279 16542,1269 "/>
  <polygon class="fil0" points="13675,4417 10615,9721 7554,4417 "/>
  <polygon class="fil0" points="9991,8640 11239,8640 10630,9694 10599,9694 "/>
  <polygon class="fil0" points="9382,7584 11848,7584 11240,8638 9990,8638 "/>
  <polygon class="fil0" points="8773,6529 12457,6529 11849,7583 9381,7583 "/>
  <polygon class="fil0" points="8164,5473 13066,5473 12458,6527 8772,6527 "/>
  <polygon class="fil0" points="7554,4417 13675,4417 13067,5471 8163,5471 "/>
  <circle class="fil0" cx="10615" cy="1873" r="1852"/>
 </g>
</svg>
